<svg xmlns="http://www.w3.org/2000/svg"
     viewBox="0 0 24 24"
     width="34"
     height="34"
     fill="white">

  <path d="M12 .04C5.39-.22.22 4.94.04 11.55-.14 18.17 5.02 23.34 11.64 23.52 18.25 23.7 23.42 18.54 23.6 11.92 23.78 5.31 18.62.22 12 .04zm4.51 16.89a.72.72 0 0 1-.98.27 14.4 14.4 0 0 0-5.14-1.75 14.4 14.4 0 0 0-5.42.26.72.72 0 1 1-.34-1.39c1.95-.47 3.96-.57 5.96-.29 2 .28 3.9.93 5.65 1.92a.72.72 0 0 1 .27.98zm1.58-3.15a.93.93 0 0 1-1.26.38 17.7 17.7 0 0 0-5.98-1.96 17.7 17.7 0 0 0-6.28.24.93.93 0 1 1-.4-1.82 19.5 19.5 0 0 1 6.94-.26 19.5 19.5 0 0 1 6.6 2.16.93.93 0 0 1 .38 1.26zm1.75-3.55a1.15 1.15 0 0 1-1.55.49 21.4 21.4 0 0 0-6.91-2.21 21.4 21.4 0 0 0-7.26.21 1.15 1.15 0 1 1-.46-2.25 23.7 23.7 0 0 1 8.03-.24 23.7 23.7 0 0 1 7.66 2.45 1.15 1.15 0 0 1 .49 1.55z"/>
</svg>